Coordinates
version=1
nRows=24
nColumns=19
inDegrees=yes

Units are S.I. units (second, meters, Newtons, ...)
If the header above contains a line with 'inDegrees', this indicates whether rotational values are in degrees (yes) or radians (no).

endheader
time	pelvis_tilt	pelvis_list	pelvis_rotation	pelvis_tx	pelvis_ty	pelvis_tz	hip_flexion_r	hip_adduction_r	hip_rotation_r	knee_angle_r	knee_angle_r_beta	ankle_angle_r	hip_flexion_l	hip_adduction_l	hip_rotation_l	knee_angle_l	knee_angle_l_beta	ankle_angle_l
     15.12000000	     -4.89335167	     -2.98570950	      1.67518826	      2.26694264	      0.97721899	      1.04090009	     17.91381475	      5.48311416	     -6.16679825	      3.70951760	      0.06474330	      5.70613553	     -9.85106892	     -9.30751798	    -20.67251172	     38.36934207	      0.66967135	    -13.17693125
     15.12666667	     -4.24448956	     -3.66525576	      1.47485940	      2.26736314	      0.97429197	      1.04218940	     17.35526692	      6.28698849	     -6.66358581	      5.28870597	      0.09230533	      5.15700783	    -10.05594344	    -10.82244310	    -21.79987858	     40.83053508	      0.71262727	    -12.48843346
     15.13333333	     -3.63699963	     -4.42214443	      1.25702588	      2.26760615	      0.97102954	      1.04349274	     17.01924376	      7.11106412	     -7.32788094	      7.38837225	      0.12895142	      4.77095569	    -10.14094468	    -12.42415201	    -22.80697089	     43.35953743	      0.75676669	    -11.73177289
     15.14000000	     -2.99441156	     -5.21625105	      1.01559108	      2.26762612	      0.96753935	      1.04473850	     16.80662500	      7.90375882	     -8.09029147	      9.94797728	      0.17362496	      4.59623024	    -10.20334602	    -14.04262308	    -23.67561225	     45.89872727	      0.80108391	    -10.85480293
     15.14666667	     -2.43591225	     -5.99090529	      0.70085133	      2.26734784	      0.96375511	      1.04597433	     16.78601241	      8.62017567	     -8.82515932	     12.80483391	      0.22348651	      4.73878355	    -10.07826142	    -15.56561643	    -24.30551579	     48.47538694	      0.84605511	     -9.94911134
     15.15333333	     -1.82144918	     -6.75648384	      0.41889121	      2.26684010	      0.95995249	      1.04701638	     16.72463939	      9.26911359	     -9.47195461	     15.78053940	      0.27542237	      5.16376840	     -9.90234731	    -16.99812753	    -24.62656327	     51.02144916	      0.89049228	     -8.94591640
     15.16000000	     -2.39080647	     -7.22480966	     -0.02254004	      2.26585129	      0.95487806	      1.04815965	     18.13745778	      9.52424336	    -10.01965528	     19.23379146	      0.33569299	      5.95734802	     -8.15412720	    -17.99889401	    -24.38204445	     53.78602628	      0.93874325	     -7.94059184
     15.16666667	     -1.94928842	     -7.88087532	     -0.35382017	      2.26478436	      0.95104030	      1.04898372	     18.17669969	     10.03691786	    -10.29452695	     22.13292846	      0.38629247	      6.95433646	     -7.50102978	    -19.07919224	    -24.03261864	     56.26820398	      0.98206542	     -6.90657092
     15.17333333	     -1.50318424	     -8.50643897	     -0.65231819	      2.26344160	      0.94745251	      1.04961529	     18.07897578	     10.53084674	    -10.39985693	     24.78772712	      0.43262745	      8.18946678	     -6.68462094	    -19.98513759	    -23.31699234	     58.67883490	      1.02413887	     -5.86647015
     15.18000000	     -0.65995483	     -9.16159640	     -0.97741606	      2.26191942	      0.94464802	      1.05013048	     17.32998742	     11.13230775	    -10.20220207	     27.02571511	      0.47168771	      9.61806777	     -6.26724185	    -20.78516824	    -22.54823717	     60.88263563	      1.06260245	     -4.86693617
     15.18666667	     -0.70413884	     -9.63022280	     -1.22110621	      2.26002085	      0.94136682	      1.05052457	     17.47298361	     11.49779940	    -10.12277904	     29.12901235	      0.50839717	     11.07450628	     -4.50636600	    -21.21497855	    -21.00054853	     63.16281820	      1.10239914	     -3.85796210
     15.19333333	     -0.38398689	    -10.09540688	     -1.48845973	      2.25802921	      0.93897642	      1.05083369	     16.95172033	     11.93780501	     -9.80818935	     30.73665105	      0.53645576	     12.59068039	     -3.14681268	    -21.51289557	    -19.49778381	     65.18247481	      1.13764880	     -2.89209453
     15.20000000	     -0.13448127	    -10.48688794	     -1.73006699	      2.25594556	      0.93706302	      1.05106529	     16.28696089	     12.32658700	     -9.44161450	     31.94214169	      0.55749554	     14.05601302	     -1.62337381	    -21.60759736	    -17.83294107	     67.01542422	      1.16963980	     -1.94203567
     15.20666667	     -0.01722726	    -10.77554005	     -1.99462012	      2.25381289	      0.93557523	      1.05130410	     15.55375765	     12.64186347	     -8.99732946	     32.77816590	      0.57208692	     15.41836447	      0.08319903	    -21.49377859	    -16.11868691	     68.64520682	      1.19808487	     -1.01745220
     15.21333333	      0.11832528	    -10.98623154	     -2.21238430	      2.25176523	      0.93467607	      1.05149829	     14.56431469	     12.89312769	     -8.52262571	     33.18717874	      0.57922554	     16.63057884	      1.77425286	    -21.23118419	    -14.41014970	     70.02272897	      1.22212717	     -0.10988798
     15.22000000	      0.41112524	    -11.04841612	     -2.75837171	      2.24974509	      0.93451994	      1.05207530	     13.20873468	     13.10225969	     -7.53805604	     33.33892208	      0.58187396	     17.59420356	      3.03875052	    -20.79523604	    -13.25047468	     71.03790645	      1.23984536	      0.64858432
     15.22666667	      0.16849947	    -11.11318035	     -2.73642163	      2.24800775	      0.93425148	      1.05212132	     12.22364910	     13.17100621	     -7.32867726	     32.96862822	      0.57541111	     18.48541777	      5.22474965	    -20.33476611	    -11.40949537	     71.99448091	      1.25654074	      1.67544347
     15.23333333	      0.07525741	    -10.95334399	     -3.21491251	      2.24639302	      0.93473189	      1.05277656	     10.91753409	     13.14859048	     -6.39980530	     32.44391704	      0.56625317	     19.16217900	      6.84257316	    -19.71268742	    -10.43179419	     72.50921532	      1.26552455	      2.57684781
     15.24000000	     -0.33543474	    -10.83548300	     -3.45420578	      2.24492031	      0.93519983	      1.05327283	      9.84280579	     13.13132809	     -5.78277471	     31.63981744	      0.55221899	     19.50765317	      8.92781338	    -19.16393396	     -9.24332382	     72.91511110	      1.27260876	      3.43721295
     15.24666667	     -0.60577538	    -10.50528486	     -3.96225013	      2.24366544	      0.93634009	      1.05410015	      8.48160717	     12.94152265	     -4.75956168	     30.65268593	      0.53499029	     19.73726500	     10.55953010	    -18.49670723	     -8.68710554	     72.90306140	      1.27239846	      4.31286038
     15.25333333	     -0.92349409	    -10.29338407	     -4.35383896	      2.24265843	      0.93778203	      1.05491303	      7.01368895	     12.87071232	     -3.80565003	     29.32500243	      0.51181785	     19.63248983	     12.22002034	    -18.07053214	     -8.22824131	     72.69647869	      1.26879291	      5.14654354
     15.26000000	     -1.34627044	     -9.82553415	     -4.85930159	      2.24167486	      0.93950097	      1.05581157	      5.67930077	     12.52311470	     -2.70193914	     28.02391608	      0.48910960	     19.39548548	     13.85182141	    -17.40430539	     -8.04373297	     72.16995977	      1.25960342	      6.01384768
     15.26666667	     -1.26977933	     -9.52694504	     -5.34984621	      2.24118154	      0.94209032	      1.05673639	      3.57059431	     12.29867182	     -1.49689442	     26.28075087	      0.45868563	     18.83167232	     14.72668912	    -17.09642184	     -8.32627887	     71.31849065	      1.24474248	      6.83795612
     15.27333333	     -1.86582133	     -8.94726623	     -5.87163821	      2.24053120	      0.94422382	      1.05756928	      2.36969478	     11.77318828	     -0.44868734	     24.79469201	      0.43274901	     18.10037992	     16.35598503	    -16.47981741	     -8.55150540	     70.29950163	      1.22695777	      7.64151180
